<svg xmlns="http://www.w3.org/2000/svg" xmlns:xlink="http://www.w3.org/1999/xlink" version="1.1" x="0px" y="0px" viewBox="0 0 100 125" style="enable-background:new 0 0 100 100;" xml:space="preserve"><g><g><g><g><g><g><path d="M50.76,12.65c-0.19,0-0.38-0.03-0.57-0.08c-1.06-0.31-1.66-1.43-1.35-2.49l1.34-4.5c0.31-1.06,1.42-1.67,2.49-1.35        c1.06,0.31,1.66,1.43,1.35,2.49l-1.34,4.5C52.42,12.08,51.63,12.65,50.76,12.65z"/></g></g></g></g><g><g><g><g><path d="M47.9,22.29c-0.19,0-0.38-0.03-0.57-0.08c-1.06-0.31-1.66-1.43-1.35-2.49L49.3,8.53c0.31-1.06,1.43-1.67,2.49-1.35        c1.06,0.31,1.66,1.43,1.35,2.49l-3.32,11.19C49.56,21.72,48.77,22.29,47.9,22.29z"/></g></g></g></g><g><g><g><g><path d="M57.07,17.31c-0.19,0-0.38-0.03-0.57-0.08L52,15.89c-1.06-0.31-1.66-1.43-1.35-2.49c0.31-1.06,1.43-1.67,2.49-1.35        l4.5,1.34c1.06,0.31,1.66,1.43,1.35,2.49C58.73,16.75,57.94,17.31,57.07,17.31z"/></g></g></g></g><g><g><g><g><path d="M54.12,16.44c-0.19,0-0.38-0.03-0.57-0.08l-11.19-3.32c-1.06-0.31-1.66-1.43-1.35-2.49s1.42-1.66,2.49-1.35        l11.19,3.32c1.06,0.31,1.66,1.43,1.35,2.49C55.78,15.87,54.98,16.44,54.12,16.44z"/></g></g></g></g></g><g><g><g><g><g><path d="M20.95,42.61c-0.23,0-0.47-0.04-0.7-0.13c-1.04-0.38-1.56-1.54-1.18-2.57l3.66-9.85c0.38-1.04,1.54-1.56,2.57-1.18        c1.04,0.38,1.56,1.54,1.18,2.57l-3.66,9.85C22.53,42.11,21.76,42.61,20.95,42.61z"/></g></g></g></g><g><g><g><g><path d="M19.47,46.59c-0.23,0-0.47-0.04-0.7-0.13c-1.04-0.38-1.56-1.54-1.18-2.57l1.64-4.4c0.38-1.04,1.54-1.56,2.57-1.18        c1.04,0.38,1.56,1.54,1.18,2.57l-1.64,4.4C21.05,46.09,20.28,46.59,19.47,46.59z"/></g></g></g></g><g><g><g><g><path d="M28.95,42.25c-0.23,0-0.47-0.04-0.7-0.13l-8.76-3.26c-1.04-0.38-1.56-1.54-1.18-2.57c0.38-1.04,1.54-1.56,2.57-1.18        l8.76,3.26c1.04,0.38,1.56,1.54,1.18,2.57C30.53,41.75,29.77,42.25,28.95,42.25z"/></g></g></g></g><g><g><g><g><path d="M19.53,38.74c-0.23,0-0.47-0.04-0.7-0.13l-4.4-1.64c-1.04-0.38-1.56-1.54-1.18-2.57c0.38-1.04,1.54-1.56,2.57-1.18        l4.4,1.64c1.04,0.38,1.56,1.54,1.18,2.57C21.11,38.24,20.34,38.74,19.53,38.74z"/></g></g></g></g></g><g><g><g><g><g><path d="M77.47,42.77c-0.1,0-0.21-0.01-0.32-0.02c-1.09-0.17-1.84-1.2-1.66-2.29l1.64-10.38c0.17-1.09,1.2-1.83,2.29-1.66        c1.09,0.17,1.84,1.2,1.66,2.29l-1.64,10.38C79.29,42.06,78.44,42.77,77.47,42.77z"/></g></g></g></g><g><g><g><g><path d="M76.81,46.96c-0.1,0-0.21-0.01-0.32-0.02c-1.09-0.17-1.83-1.2-1.66-2.29l0.73-4.64c0.17-1.09,1.2-1.83,2.29-1.66        c1.09,0.17,1.83,1.2,1.66,2.29l-0.73,4.64C78.62,46.26,77.78,46.96,76.81,46.96z"/></g></g></g></g><g><g><g><g><path d="M85.24,40.83c-0.1,0-0.21-0.01-0.32-0.02l-4.64-0.73c-1.09-0.17-1.84-1.2-1.66-2.29c0.17-1.09,1.21-1.83,2.29-1.66        l4.64,0.73c1.09,0.17,1.84,1.2,1.66,2.29C87.06,40.12,86.21,40.83,85.24,40.83z"/></g></g></g></g><g><g><g><g><path d="M81.05,40.16c-0.1,0-0.21-0.01-0.32-0.02L70.36,38.5c-1.09-0.17-1.84-1.2-1.66-2.29c0.17-1.09,1.21-1.83,2.29-1.66        l10.38,1.64c1.09,0.17,1.84,1.2,1.66,2.29C82.87,39.46,82.02,40.16,81.05,40.16z"/></g></g></g></g></g><g><g><g><g><path d="M49.99,95.86c-0.65,0-1.31-0.14-1.92-0.41l-20.49-9.27c-1.66-0.75-2.73-2.41-2.73-4.24v-8.69c0-1.1,0.9-2,2-2       s2,0.9,2,2v8.69c0,0.25,0.15,0.49,0.38,0.59l20.49,9.27c0.17,0.08,0.36,0.08,0.54,0l20.52-9.27c0.23-0.11,0.38-0.34,0.38-0.59       v-8.69c0-1.1,0.9-2,2-2s2,0.9,2,2v8.69c0,1.82-1.07,3.49-2.74,4.24L51.9,95.44C51.29,95.72,50.64,95.86,49.99,95.86z"/></g></g></g></g><g><g><g><g><path d="M49.98,70.5c-0.14,0-0.28-0.03-0.41-0.09L26.44,59.95c-0.36-0.16-0.59-0.53-0.59-0.93s0.25-0.75,0.62-0.91l16.36-6.77       c0.51-0.21,1.1,0.03,1.31,0.54c0.21,0.51-0.03,1.1-0.54,1.31l-14.23,5.89l20.61,9.33l20.66-9.33l-13.64-5.64       c-0.51-0.21-0.75-0.8-0.54-1.31c0.21-0.51,0.79-0.75,1.31-0.54l15.78,6.53c0.37,0.15,0.61,0.51,0.62,0.91       c0.01,0.4-0.22,0.76-0.59,0.93L50.39,70.42C50.26,70.48,50.12,70.5,49.98,70.5z"/></g></g></g></g><g><g><g><g><g><path d="M26.82,61.04c-0.16,0-0.33-0.02-0.49-0.06l-12.17-3.1c-0.84-0.21-1.44-0.94-1.5-1.8s0.44-1.66,1.24-1.99L40.52,43.3        c1.02-0.41,2.19,0.08,2.6,1.1c0.42,1.02-0.08,2.19-1.1,2.6l-20.97,8.5l6.27,1.59c1.07,0.27,1.72,1.36,1.45,2.43        C28.53,60.44,27.71,61.04,26.82,61.04z"/></g></g></g></g><g><g><g><g><path d="M73.18,61.04c-0.89,0-1.71-0.6-1.94-1.51c-0.27-1.07,0.38-2.16,1.45-2.43l6.26-1.59l-20.54-8.3        c-1.02-0.41-1.52-1.58-1.11-2.6c0.41-1.02,1.58-1.52,2.6-1.11l26.2,10.59c0.8,0.32,1.3,1.13,1.25,1.99        c-0.06,0.86-0.66,1.59-1.5,1.8l-12.17,3.1C73.51,61.02,73.34,61.04,73.18,61.04z"/></g></g></g></g></g><g><g><g><g><g><path d="M40.51,81.82c-0.3,0-0.6-0.07-0.88-0.21L16.35,70.18c-0.58-0.29-0.99-0.84-1.09-1.48c-0.1-0.64,0.12-1.29,0.58-1.75        l9.63-9.31c0.79-0.77,2.06-0.75,2.83,0.05c0.77,0.79,0.75,2.06-0.05,2.83l-7.58,7.33l19.38,9.52l8.47-9.21        c0.75-0.81,2.01-0.87,2.83-0.12c0.81,0.75,0.87,2.01,0.12,2.83l-9.48,10.32C41.59,81.6,41.05,81.82,40.51,81.82z"/></g></g></g></g><g><g><g><g><path d="M59.5,81.82c-0.55,0-1.08-0.22-1.47-0.65l-9.48-10.32c-0.75-0.81-0.69-2.08,0.12-2.83c0.81-0.75,2.08-0.69,2.83,0.12        l8.47,9.21l19.38-9.52l-7.58-7.33c-0.79-0.77-0.81-2.03-0.05-2.83s2.03-0.82,2.83-0.05l9.63,9.31        c0.47,0.45,0.69,1.11,0.58,1.75c-0.1,0.64-0.51,1.2-1.09,1.48L60.38,81.61C60.1,81.75,59.79,81.82,59.5,81.82z"/></g></g></g></g></g><g><g><g><g><path d="M50,70.07c-0.55,0-1-0.45-1-1V28.61c0-0.55,0.45-1,1-1s1,0.45,1,1v40.47C51,69.63,50.55,70.07,50,70.07z"/></g></g></g></g><g><g><g><g><g><g><g><path d="M60.3,27.32c-0.13,0-0.27-0.01-0.4-0.03c-0.77-0.11-1.45-0.5-1.92-1.13c-0.47-0.61-0.67-1.38-0.56-2.15          c0.11-0.77,0.51-1.45,1.13-1.92c0.62-0.47,1.39-0.67,2.16-0.56c0.77,0.11,1.44,0.51,1.91,1.13          c0.47,0.62,0.67,1.39,0.56,2.16c-0.11,0.77-0.51,1.45-1.13,1.92C61.54,27.12,60.93,27.32,60.3,27.32z M59.42,25.07          c0.17,0.23,0.44,0.38,0.72,0.42c0.28,0.04,0.58-0.04,0.81-0.21c0.23-0.17,0.38-0.44,0.42-0.72          c0.04-0.29-0.04-0.58-0.21-0.81l-0.15,0.11l0.15-0.12c0,0,0,0,0,0c-0.17-0.23-0.44-0.38-0.72-0.42          c-0.29-0.04-0.58,0.04-0.82,0.22c-0.22,0.16-0.38,0.43-0.42,0.72C59.17,24.55,59.25,24.84,59.42,25.07z M59.42,25.08h0.01          H59.42z"/></g></g></g></g></g></g><g><g><g><g><g><g><path d="M39.7,27.32c-0.63,0-1.24-0.21-1.75-0.6c-0.61-0.45-1.01-1.13-1.12-1.91c-0.11-0.77,0.09-1.54,0.56-2.16          c0.47-0.62,1.14-1.02,1.91-1.12c0.77-0.11,1.54,0.09,2.16,0.56c0.62,0.47,1.02,1.15,1.13,1.92s-0.1,1.54-0.57,2.15          c-0.46,0.61-1.15,1.01-1.92,1.12C39.96,27.31,39.83,27.32,39.7,27.32z M38.83,23.75C38.83,23.75,38.83,23.76,38.83,23.75          c-0.17,0.23-0.25,0.52-0.21,0.81c0.04,0.29,0.19,0.55,0.42,0.72c0.23,0.17,0.53,0.25,0.81,0.21          c0.29-0.04,0.55-0.2,0.72-0.42c0.17-0.23,0.25-0.52,0.21-0.81c-0.04-0.29-0.2-0.56-0.43-0.73c-0.21-0.16-0.51-0.25-0.8-0.2          C39.27,23.37,39.01,23.52,38.83,23.75l0.15,0.11L38.83,23.75z"/></g></g></g></g></g></g></g><g><g><g><g><g><path d="M42.62,67.01c-0.36,0-0.73-0.1-1.05-0.3c-0.94-0.58-1.22-1.82-0.64-2.75c0.8-1.29,0.93-3.31,0.91-3.98        c0-23.15-17.3-35.58-17.47-35.7c-0.9-0.63-1.12-1.88-0.49-2.79c0.63-0.9,1.88-1.12,2.79-0.49        c0.78,0.55,19.17,13.76,19.17,38.91c0.01,0.3,0.07,3.61-1.51,6.16C43.94,66.68,43.29,67.01,42.62,67.01z"/></g></g></g></g><g><g><g><g><path d="M57.38,67c-0.72,0-1.41-0.38-1.77-1.06c-1.41-2.65-1.45-5.69-1.45-6.03c0-25.15,18.39-38.36,19.17-38.91        c0.9-0.64,2.15-0.42,2.79,0.49c0.63,0.9,0.42,2.15-0.48,2.79l0,0C75.46,24.4,58.16,36.9,58.16,59.91        c0,0.02,0.03,2.35,0.98,4.15c0.52,0.98,0.15,2.19-0.83,2.71C58.02,66.93,57.7,67,57.38,67z"/></g></g></g></g></g><g><g><g><g><path d="M50,94.56c-0.55,0-1-0.45-1-1V70.43c0-0.55,0.45-1,1-1s1,0.45,1,1v23.13C51,94.11,50.55,94.56,50,94.56z"/></g></g></g></g></g><text x="0" y="115" fill="#000000" font-size="5px" font-weight="bold" font-family="'Helvetica Neue', Helvetica, Arial-Unicode, Arial, Sans-serif">Created by Line Icons Pro</text><text x="0" y="120" fill="#000000" font-size="5px" font-weight="bold" font-family="'Helvetica Neue', Helvetica, Arial-Unicode, Arial, Sans-serif">from the Noun Project</text></svg>